<svg width="32" height="33" viewBox="0 0 32 33" fill="none" xmlns="http://www.w3.org/2000/svg">
<path d="M1 9.17651L11.3695 14.9368C15.1924 17.0603 16.8076 17.0603 20.6305 14.9368L31 9.17651" stroke="#337B7C" stroke-width="1.5" stroke-linejoin="round"/>
<path d="M1.02365 20.17C1.12171 24.6782 1.17074 26.9322 2.86743 28.602C4.56413 30.2717 6.9255 30.3299 11.6482 30.4462C14.559 30.5179 17.441 30.5179 20.3518 30.4462C25.0745 30.3299 27.4359 30.2717 29.1326 28.602C30.8293 26.9322 30.8783 24.6782 30.9764 20.17C31.0079 18.7205 31.0079 17.2795 30.9764 15.83C30.8783 11.3218 30.8293 9.06778 29.1326 7.39803C27.4359 5.72828 25.0745 5.67011 20.3518 5.55378C17.441 5.48208 14.559 5.48207 11.6482 5.55377C6.92549 5.67009 4.56412 5.72826 2.86743 7.39801C1.17073 9.06776 1.12171 11.3218 1.02365 15.83C0.992117 17.2795 0.992118 18.7205 1.02365 20.17Z" stroke="#337B7C" stroke-width="1.5" stroke-linejoin="round"/>
</svg>
