<svg width="30" height="29" viewBox="0 0 30 29" fill="none" xmlns="http://www.w3.org/2000/svg">
<path d="M4.03423 14.4232C2.77019 12.2192 2.15986 10.4194 1.79185 8.59503C1.24756 5.89685 2.49314 3.26116 4.55657 1.57938C5.42866 0.868592 6.42837 1.11144 6.94407 2.03661L8.10831 4.12529C9.03112 5.78084 9.49252 6.60861 9.401 7.4862C9.30948 8.3638 8.68722 9.07856 7.44269 10.5081L4.03423 14.4232ZM4.03423 14.4232C6.59274 18.8844 10.6078 22.9018 15.0743 25.4632M15.0743 25.4632C17.2783 26.7273 19.0781 27.3376 20.9024 27.7056C23.6006 28.2499 26.2363 27.0043 27.9181 24.9409C28.6289 24.0688 28.386 23.0691 27.4609 22.5534L25.3722 21.3892C23.7166 20.4664 22.8889 20.005 22.0113 20.0965C21.1337 20.188 20.4189 20.8103 18.9894 22.0548L15.0743 25.4632Z" stroke="#337B7C" stroke-width="1.5" stroke-linejoin="round"/>
</svg>
