<svg width="48" height="48" viewBox="0 0 48 48" fill="none" xmlns="http://www.w3.org/2000/svg">
<path d="M40.0039 22V20C40.0039 12.4575 40.0039 8.6863 37.5229 6.34314C35.0419 4 31.0489 4 23.0627 4H20.9451C12.9589 4 8.96587 4 6.48489 6.34314C4.00391 8.6863 4.00391 12.4575 4.00391 20V28C4.00391 35.5424 4.00391 39.3138 6.48489 41.6568C8.96587 44 12.9589 44 20.9451 44H22.0039" stroke="#337B7C" stroke-width="2" stroke-linecap="round"/>
<path d="M14.0039 14H30.0039" stroke="#337B7C" stroke-width="2" stroke-linecap="round"/>
<path d="M14.0039 24H30.0039" stroke="#337B7C" stroke-width="2" stroke-linecap="round"/>
<path d="M41.7249 28.8782L43.1134 30.2629C44.2883 31.4345 44.2883 33.334 43.1134 34.5056L35.8385 41.8969C35.2662 42.4676 34.5342 42.8523 33.7386 43.0005L29.2298 43.9766C28.518 44.1307 27.8841 43.5003 28.0365 42.79L28.9963 38.3194C29.1448 37.526 29.5306 36.796 30.1029 36.2253L37.4704 28.8782C38.6453 27.7066 40.55 27.7066 41.7249 28.8782Z" stroke="#337B7C" stroke-width="2" stroke-linecap="round" stroke-linejoin="round"/>
</svg>
