<svg width="42" height="42" viewBox="0 0 42 42" fill="none" xmlns="http://www.w3.org/2000/svg">
<path d="M1.51125 28.2642C1.57917 27.6178 2.04759 27.0968 2.98445 26.055L5.04659 23.7496C5.55065 23.1114 5.90835 21.9998 5.90835 20.9994C5.90835 19.9998 5.55053 18.8878 5.04653 18.2498L2.98445 15.9444C2.04759 14.9025 1.57915 14.3816 1.51125 13.7351C1.44333 13.0887 1.79325 12.4814 2.49307 11.2669L3.48023 9.55372C4.22683 8.25806 4.60011 7.61022 5.23527 7.3519C5.87043 7.09356 6.58875 7.29742 8.02543 7.7051L10.4659 8.3925C11.3831 8.604 12.3454 8.48402 13.1829 8.05372L13.8567 7.66498C14.5748 7.205 15.1272 6.5268 15.433 5.72962L16.1009 3.73484C16.54 2.41482 16.7596 1.7548 17.2823 1.37728C17.8051 0.999756 18.4995 0.999756 19.8881 0.999756H22.1177C23.5065 0.999756 24.2009 0.999756 24.7235 1.37728C25.2463 1.7548 25.4659 2.41482 25.9051 3.73484L26.5729 5.72962C26.8787 6.5268 27.4311 7.205 28.1493 7.66498L28.8231 8.05372C29.6605 8.48402 30.6229 8.604 31.5401 8.3925L33.9805 7.7051C35.4171 7.29742 36.1355 7.09356 36.7707 7.3519C37.4059 7.61022 37.7791 8.25806 38.5257 9.55372L39.5129 11.2669C40.2127 12.4814 40.5625 13.0887 40.4947 13.7351C40.4267 14.3816 39.9583 14.9025 39.0215 15.9444L36.9593 18.2498C36.4555 18.8878 36.0975 19.9998 36.0975 20.9994C36.0975 21.9998 36.4553 23.1114 36.9593 23.7496L39.0215 26.055C39.9583 27.0968 40.4267 27.6178 40.4947 28.2642C40.5625 28.9108 40.2127 29.518 39.5129 30.7324L38.5257 32.4456C37.7791 33.7412 37.4059 34.3892 36.7707 34.6474C36.1355 34.9058 35.4171 34.702 33.9805 34.2942L31.5401 33.6068C30.6227 33.3952 29.6603 33.5154 28.8227 33.9458L28.1491 34.3346C27.4309 34.7946 26.8787 35.4726 26.5731 36.2698L25.9051 38.2648C25.4659 39.5848 25.2463 40.2448 24.7235 40.6222C24.2009 40.9998 23.5065 40.9998 22.1177 40.9998H19.8881C18.4995 40.9998 17.8051 40.9998 17.2823 40.6222C16.7596 40.2448 16.54 39.5848 16.1009 38.2648" stroke="#337B7C" stroke-width="2" stroke-linecap="round"/>
<path d="M2.47489 34.5599C4.63489 32.3998 11.9789 25.1279 12.6989 24.2879C13.46 23.3999 12.8429 22.1999 13.2101 18.4799C13.3878 16.6799 13.775 15.3313 14.8829 14.3279C16.2029 13.0799 17.2829 13.0799 21.0029 12.9959C24.2429 13.0799 24.6269 12.7199 24.9629 13.5599C25.2029 14.1599 24.4829 14.5199 23.6189 15.4799C21.6989 17.3999 20.5709 18.3599 20.4629 18.9599C19.6829 21.5999 22.7549 23.1599 24.4349 21.4799C25.0702 20.8445 28.0109 17.8799 28.2989 17.6399C28.5149 17.4479 29.0319 17.4571 29.2829 17.7599C29.4989 17.9721 29.5229 17.9999 29.4989 18.9599C29.4767 19.8485 29.4866 21.1242 29.4893 22.4399C29.4928 24.1445 29.4029 26.0399 28.6829 26.9999C27.2429 29.1599 24.8429 29.2799 22.6829 29.3759C20.6429 29.4959 18.9629 29.2799 18.4349 29.6639C18.0029 29.8799 15.7229 32.2799 12.9629 35.0399L8.04289 39.9599C3.96289 43.1999 -0.525109 38.1599 2.47489 34.5599Z" stroke="#337B7C" stroke-width="2" stroke-linecap="round"/>
</svg>
