<svg width="24" height="24" viewBox="0 0 24 24" fill="none" xmlns="http://www.w3.org/2000/svg">
<path d="M12.0264 24H11.9736C5.37143 24 0 18.6286 0 12.0264V11.9736C0 5.37142 5.37143 0 11.9736 0H12.0264C18.6286 0 24 5.37142 24 11.9736V12.0264C24 18.6286 18.6286 24 12.0264 24ZM11.9736 0.812375C5.81904 0.812375 0.812375 5.81904 0.812375 11.9736V12.0264C0.812375 18.181 5.81904 23.1876 11.9736 23.1876H12.0264C18.181 23.1876 23.1876 18.181 23.1876 12.0264V11.9736C23.1876 5.81904 18.181 0.812375 12.0264 0.812375H11.9736Z" fill="white"/>
<path d="M15.588 5.12378H8.41312C6.43092 5.12378 4.81836 6.73634 4.81836 8.71854V15.2825C4.81836 17.2647 6.43092 18.8773 8.41312 18.8773H15.588C17.5702 18.8773 19.1828 17.2647 19.1828 15.2825V8.71854C19.1828 6.73634 17.5702 5.12378 15.588 5.12378ZM6.08648 8.71854C6.08648 7.4358 7.13038 6.39189 8.41312 6.39189H15.588C16.8708 6.39189 17.9147 7.4358 17.9147 8.71854V15.2825C17.9147 16.5653 16.8708 17.6092 15.588 17.6092H8.41312C7.13038 17.6092 6.08648 16.5653 6.08648 15.2825V8.71854Z" fill="white"/>
<path d="M12 15.3435C13.8433 15.3435 15.3437 13.8438 15.3437 11.9997C15.3437 10.1556 13.8441 8.65601 12 8.65601C10.1559 8.65601 8.65625 10.1556 8.65625 11.9997C8.65625 13.8438 10.1559 15.3435 12 15.3435ZM12 9.92493C13.1446 9.92493 14.0756 10.8559 14.0756 12.0005C14.0756 13.1452 13.1446 14.0762 12 14.0762C10.8554 14.0762 9.92437 13.1452 9.92437 12.0005C9.92437 10.8559 10.8554 9.92493 12 9.92493Z" fill="white"/>
<path d="M15.6548 9.19613C16.1512 9.19613 16.5558 8.79239 16.5558 8.29522C16.5558 7.79804 16.152 7.39429 15.6548 7.39429C15.1577 7.39429 14.7539 7.79804 14.7539 8.29522C14.7539 8.79239 15.1577 9.19613 15.6548 9.19613Z" fill="white"/>
</svg>
