<svg width="24" height="24" viewBox="0 0 24 24" fill="none" xmlns="http://www.w3.org/2000/svg">
<path d="M12.0264 24H11.9736C5.37143 24 0 18.6286 0 12.0264V11.9736C0 5.37143 5.37143 0 11.9736 0H12.0264C18.6286 0 24 5.37143 24 11.9736V12.0264C24 18.6286 18.6286 24 12.0264 24ZM11.9736 0.812375C5.81905 0.812375 0.812375 5.81905 0.812375 11.9736V12.0264C0.812375 18.181 5.81905 23.1876 11.9736 23.1876H12.0264C18.181 23.1876 23.1876 18.181 23.1876 12.0264V11.9736C23.1876 5.81905 18.181 0.812375 12.0264 0.812375H11.9736Z" fill="white"/>
<path d="M5.93587 8.11313C5.63042 7.82961 5.47852 7.47867 5.47852 7.06111C5.47852 6.64355 5.63123 6.27715 5.93587 5.99282C6.24133 5.7093 6.63452 5.56714 7.11626 5.56714C7.59799 5.56714 7.97575 5.7093 8.28039 5.99282C8.58585 6.27634 8.73775 6.63299 8.73775 7.06111C8.73775 7.48923 8.58504 7.82961 8.28039 8.11313C7.97494 8.39665 7.58743 8.53881 7.11626 8.53881C6.64508 8.53881 6.24133 8.39665 5.93587 8.11313ZM8.48105 9.7395V18.4319H5.73441V9.7395H8.48105Z" fill="white"/>
<path d="M17.6243 10.5981C18.223 11.248 18.522 12.14 18.522 13.2757V18.2783H15.9134V13.6283C15.9134 13.0556 15.7648 12.6104 15.4683 12.2936C15.1717 11.9767 14.7721 11.8175 14.2716 11.8175C13.7712 11.8175 13.3715 11.9759 13.075 12.2936C12.7785 12.6104 12.6298 13.0556 12.6298 13.6283V18.2783H10.0059V9.7151H12.6298V10.8508C12.8955 10.4722 13.2537 10.1733 13.7038 9.95312C14.1538 9.73297 14.66 9.62329 15.2229 9.62329C16.2254 9.62329 17.0264 9.94824 17.6243 10.5981Z" fill="white"/>
</svg>
