<?xml version="1.0" encoding="UTF-8"?>
<svg id="Layer_1" xmlns="http://www.w3.org/2000/svg" version="1.1" viewBox="0 0 403.03 528.85">
  <!-- Generator: Adobe Illustrator 29.0.1, SVG Export Plug-In . SVG Version: 2.1.0 Build 192)  -->
  <defs>
    <style>
      .st0 {
        fill: #393939;
      }

      .st1 {
        fill: #454a7a;
      }

      .st2 {
        fill: none;
        stroke: #393939;
        stroke-miterlimit: 10;
        stroke-width: 2px;
      }

      .st3 {
        fill: #080808;
      }
    </style>
  </defs>
  <g>
    <path class="st3" d="M341.13,281.45c-.68,1.32-2.67.47-2.2-.94,7.28-21.54,11.3-45.18,11.3-69.99,0-100.53-66.09-182.03-147.61-182.03S55.01,110,55.01,210.53c0,24.8,4.02,48.44,11.3,69.99.47,1.4-1.52,2.25-2.2.94-13.83-26.88-21.77-58.16-21.77-91.52C42.35,89.52,114.1,8.12,202.62,8.12s160.27,81.4,160.27,181.81c0,33.37-7.93,64.64-21.77,91.52Z"/>
    <path class="st0" d="M124.84,209.53c.04-3.07,2.24-9.63,6.6-19.68l6.93-16.15h45.11l3.65,7.2c1.73,3.24,3.47,6.48,5.2,9.72l7.47-9.4-35.83-68.89h-3.16l-32.99,75.91c-2.4,5.43-3.74,8.55-4.02,9.36-3.47,8.55-6.6,14-8.83,16.82-4.37,5.54-11.11,4.37-15.99,5.12l-.05,3.71h44.84l.05-3.71c-3.52,0-11.97-.17-15.71-2.54-2.36-1.5-3.31-4.18-3.26-7.46ZM159.04,125.53l22.21,43.78h-40.99c6.26-14.59,12.53-29.18,18.79-43.78Z"/>
    <path class="st0" d="M280.78,280.69c-2.44,8.72-2.13,10.08-5.08,14.08-2.95,4.01-7.06,6.61-10.34,7.8-3.28,1.19-8.3,1.79-15.06,1.79h-14.37c-6.33,0-10.46-.55-12.38-1.67-1.92-1.11-3.1-2.67-3.53-4.67-.43-2-.65-6.98-.65-14.94v-57.66c0-9.15.28-14.94.85-17.38.57-2.44,1.69-4.1,3.37-4.99,1.68-.89,2.22-1.34,7.64-1.34h4.87v-2.74h-14.7l-11.98,17.86c.07,2.42.11,5.28.11,8.59v54.01c0,9.2-.26,15.06-.77,17.58-.52,2.52-1.68,5.37-3.49,6.56-1.81,1.19-5.08,1.79-9.79,1.79h-3.25v2.74h90.56l.81-27.4h-2.82Z"/>
    <line class="st2" x1="133.86" y1="295.8" x2="251.89" y2="142.13"/>
  </g>
  <g>
    <rect class="st1" x="148.51" y="446.74" width="108.22" height="14.29"/>
    <rect class="st1" x="148.51" y="469.2" width="108.22" height="14.29"/>
    <path class="st1" d="M214.05,523.49h-24.6c-5.33,0-10.52-1.57-14.86-4.49l-9.73-6.55h73.67l-9.52,6.48c-4.35,2.96-9.59,4.56-14.96,4.56Z"/>
    <path class="st1" d="M148.51,491.66v14.29h8.86l.07-.15c.85-1.92,2.83-3.18,5.03-3.18h78.02c1.61,0,3.14.67,4.17,1.84l1.32,1.49h10.75v-14.29h-108.22Z"/>
  </g>
  <g>
    <path class="st0" d="M28.27,404.47h-13.84l-2.74,6.38h-3.79l11.66-26.25h3.75l11.63,26.25h-3.9l-2.78-6.38ZM26.88,401.21l-5.55-12.75-5.48,12.75h11.03Z"/>
    <path class="st0" d="M72.61,410.85l-5.21-8.25c-.45.04-.94.07-1.46.07h-6.68v8.18h-3.6v-26.25h10.28c6.64,0,10.43,3.23,10.43,8.85,0,4.28-2.03,7.24-5.74,8.51l6.11,8.89h-4.13ZM65.93,399.41c4.46,0,6.98-1.95,6.98-5.85s-2.51-5.7-6.98-5.7h-6.68v11.55h6.68Z"/>
    <path class="st0" d="M103.93,384.59l9.6,18.45,9.53-18.45h4.31v26.25h-3.38l-.04-20.97-9.34,18.19h-2.21l-9.41-18.19v20.97h-3.34v-26.25h4.28Z"/>
    <path class="st0" d="M168.49,404.47h-13.84l-2.74,6.38h-3.79l11.66-26.25h3.75l11.63,26.25h-3.9l-2.78-6.38ZM167.1,401.21l-5.55-12.75-5.48,12.75h11.03Z"/>
    <path class="st0" d="M227.61,384.59v22.99h11.48v3.26h-15.08v-26.25h3.6Z"/>
    <path class="st0" d="M264.14,384.59v26.25h-3.6v-26.25h3.6Z"/>
    <path class="st0" d="M306.68,398.02h3.19v9.64c-2.63,2.06-6.38,3.45-9.94,3.45-7.69,0-13.73-5.93-13.73-13.43s6.08-13.31,13.92-13.31c3.68,0,7.31,1.39,9.86,3.64l-2.06,2.62c-2.1-1.95-4.95-3.08-7.8-3.08-5.74,0-10.28,4.5-10.28,10.13s4.58,10.2,10.31,10.2c2.21,0,4.58-.75,6.53-2.06v-7.8Z"/>
    <path class="st0" d="M337.18,384.59v11.7h15v-11.7h3.64v26.25h-3.64v-11.29h-15v11.29h-3.6v-26.25h3.6Z"/>
    <path class="st0" d="M397.34,384.59v3.3h-8.48v22.95h-3.6v-22.95h-8.44v-3.3h20.52Z"/>
  </g>
</svg>