<svg width="24" height="24" viewBox="0 0 24 24" fill="none" xmlns="http://www.w3.org/2000/svg">
<path d="M12.0264 24H11.9736C5.37142 24 0 18.6286 0 12.0264V11.9736C0 5.37144 5.37142 0 11.9736 0H12.0264C18.6286 0 24 5.37144 24 11.9736V12.0264C24 18.6286 18.6286 24 12.0264 24ZM11.9736 0.812375C5.81904 0.812375 0.812375 5.81906 0.812375 11.9736V12.0264C0.812375 18.181 5.81904 23.1876 11.9736 23.1876H12.0264C18.181 23.1876 23.1876 18.181 23.1876 12.0264V11.9736C23.1876 5.81906 18.181 0.812375 12.0264 0.812375H11.9736Z" fill="white"/>
<path d="M13.6145 9.30891V11.8346H16.7389L16.2442 15.2368H13.6145V23.0754C13.0873 23.1485 12.5478 23.1867 12.0003 23.1867C11.3683 23.1867 10.7476 23.1363 10.1432 23.0389V15.2368H7.26172V11.8346H10.1432V8.74431C10.1432 6.8271 11.6973 5.27222 13.6153 5.27222V5.27384C13.621 5.27384 13.6259 5.27222 13.6316 5.27222H16.7397V8.21464H14.7088C14.1052 8.21464 13.6153 8.7045 13.6153 9.30809L13.6145 9.30891Z" fill="white"/>
</svg>
