<svg width="81" height="80" viewBox="0 0 81 80" fill="none" xmlns="http://www.w3.org/2000/svg">
<path d="M40.5 73.3333C37.7727 73.3333 35.1673 72.2155 29.9564 69.9797C16.9855 64.4144 10.5 61.6318 10.5 56.9512L10.5 25.825M40.5 73.3333C43.2273 73.3333 45.8327 72.2155 51.0436 69.9797C64.0145 64.4144 70.5 61.6318 70.5 56.9512L70.5 25.825M40.5 73.3333L40.5 40.569M70.5 25.825C70.5 27.8375 67.8281 29.1083 62.4843 31.65L52.7469 36.2814C46.7372 39.1398 43.7324 40.569 40.5 40.569M70.5 25.825C70.5 23.8125 67.8281 22.5417 62.4843 20M10.5 25.825C10.5 27.8375 13.1719 29.1083 18.5157 31.65L28.2531 36.2814C34.2628 39.1398 37.2676 40.569 40.5 40.569M10.5 25.825C10.5 23.8125 13.1719 22.5417 18.5157 20M21.6068 44.3701L28.253 47.5313" stroke="#337B7C" stroke-width="3" stroke-linecap="round" stroke-linejoin="round"/>
<path d="M40.4993 6.6665V13.3332M53.8327 9.99984L48.8327 16.6665M27.166 9.99984L32.166 16.6665" stroke="#337B7C" stroke-width="3" stroke-linecap="round"/>
</svg>
