<svg width="42" height="14" viewBox="0 0 42 14" fill="none" xmlns="http://www.w3.org/2000/svg">
<g clip-path="url(#clip0_129_3273)">
<path d="M21.7214 4.45783C21.6974 6.40028 23.4052 7.48419 24.6916 8.12869C26.0133 8.7899 26.4572 9.21395 26.452 9.80532C26.4421 10.7103 25.3977 11.1097 24.4204 11.1252C22.7153 11.1524 21.7238 10.6519 20.9357 10.2734L20.3214 13.2284C21.1122 13.603 22.5765 13.9298 24.0949 13.9441C27.6591 13.9441 29.991 12.1352 30.0036 9.33067C30.0175 5.7713 25.2149 5.57428 25.2477 3.98335C25.2591 3.50094 25.7068 2.98614 26.6879 2.85525C27.1735 2.78913 28.5141 2.73853 30.0339 3.45809L30.6305 0.599056C29.8131 0.29308 28.7626 9.25064e-05 27.4547 9.25064e-05C24.1 9.25064e-05 21.7404 1.83359 21.7214 4.45783ZM36.3625 0.246357C35.7116 0.246357 35.1632 0.63667 34.9184 1.23563L29.8271 13.7341H33.3887L34.0974 11.7203H38.4497L38.8608 13.7341H42L39.2606 0.246357H36.3625ZM36.8607 3.8899L37.8886 8.95469H35.0736L36.8607 3.8899ZM17.4031 0.246526L14.5957 13.7339H17.9896L20.7957 0.246189L17.4031 0.246526ZM12.3823 0.246526L8.8497 9.42665L7.42071 1.62089C7.25304 0.749515 6.59088 0.246357 5.85556 0.246357H0.0808828L0 0.63802C1.18552 0.902502 2.53247 1.32908 3.34852 1.78551C3.84792 2.06433 3.99033 2.30807 4.15439 2.97062L6.86093 13.7341H10.4475L15.9462 0.246357L12.3823 0.246526Z" fill="url(#paint0_linear_129_3273)"/>
</g>
<defs>
<linearGradient id="paint0_linear_129_3273" x1="1930.91" y1="41.9158" x2="1972.4" y2="-1390.09" gradientUnits="userSpaceOnUse">
<stop stop-color="#222357"/>
<stop offset="1" stop-color="#254AA5"/>
</linearGradient>
<clipPath id="clip0_129_3273">
<rect width="42" height="14" fill="white"/>
</clipPath>
</defs>
</svg>
