<svg width="40" height="40" viewBox="0 0 40 40" fill="none" xmlns="http://www.w3.org/2000/svg">
<path d="M15 33.3333C8.71492 31.8863 5 26.1286 5 20.8503C5 14.5741 10.6169 8.37186 14.5594 4.79159C16.7006 2.84714 19.9661 2.84714 22.1072 4.79159C24.6186 7.07221 27.6249 10.4167 29.5852 14.1666" stroke="#337B7C" stroke-width="2" stroke-linecap="round"/>
<path d="M28.334 25.8333C25.834 27.4999 21.6673 30.8333 18.334 36.6666M21.6673 31.6666C17.2276 21.901 26.3919 18.7257 33.2088 18.3596C34.0314 18.3154 34.4428 18.2933 34.7382 18.5782C35.0336 18.8631 35.0166 19.2693 34.9825 20.0816C34.6996 26.8362 31.6586 36.0113 21.6673 31.6666Z" stroke="#337B7C" stroke-width="2" stroke-linecap="round" stroke-linejoin="round"/>
</svg>
