<svg width="40" height="40" viewBox="0 0 40 40" fill="none" xmlns="http://www.w3.org/2000/svg">
<path d="M8.57078 23.3333C7.3616 21.3469 6.66602 19.0195 6.66602 16.5314C6.66602 9.24224 12.6356 3.33325 19.9993 3.33325C27.3631 3.33325 33.3327 9.24224 33.3327 16.5314C33.3327 19.0195 32.6371 21.3469 31.4279 23.3333" stroke="#337B7C" stroke-width="2" stroke-linecap="round"/>
<path d="M12.3035 28.4969C12.1504 28.0359 12.0738 27.8054 12.0827 27.6186C12.1016 27.2236 12.3506 26.8769 12.718 26.7341C12.8917 26.6665 13.1338 26.6665 13.618 26.6665H26.3794C26.8636 26.6665 27.1057 26.6665 27.2794 26.7341C27.6468 26.8769 27.8958 27.2236 27.9147 27.6186C27.9236 27.8054 27.847 28.0359 27.6939 28.4969C27.4109 29.3489 27.2694 29.7749 27.0512 30.1199C26.594 30.8426 25.8773 31.361 25.0496 31.5678C24.6545 31.6665 24.2071 31.6665 23.3123 31.6665H16.6851C15.7903 31.6665 15.3429 31.6665 14.9478 31.5678C14.1201 31.361 13.4034 30.8426 12.9462 30.1199C12.728 29.7749 12.5865 29.3489 12.3035 28.4969Z" stroke="#337B7C" stroke-width="2"/>
<path d="M25 31.6665L24.7845 32.7442C24.5488 33.9226 24.4309 34.5118 24.1669 34.9775C23.7586 35.6974 23.0971 36.2397 22.311 36.4989C21.8026 36.6665 21.2018 36.6665 20 36.6665C18.7982 36.6665 18.1974 36.6665 17.689 36.4989C16.9029 36.2397 16.2414 35.6974 15.8331 34.9775C15.5691 34.5118 15.4512 33.9226 15.2155 32.7442L15 31.6665" stroke="#337B7C" stroke-width="2"/>
<path d="M13.75 16.2498L17.5 19.9998L17.5 26.6665M13.75 17.4998C14.4404 17.4998 15 16.9402 15 16.2498C15 15.5595 14.4404 14.9998 13.75 14.9998C13.0596 14.9998 12.5 15.5595 12.5 16.2498C12.5 16.9402 13.0596 17.4998 13.75 17.4998Z" stroke="#337B7C" stroke-width="2" stroke-linecap="round" stroke-linejoin="round"/>
<path d="M26.25 16.2498L22.5 19.9998L22.5 26.6665M26.25 17.4998C25.5596 17.4998 25 16.9402 25 16.2498C25 15.5595 25.5596 14.9998 26.25 14.9998C26.9404 14.9998 27.5 15.5595 27.5 16.2498C27.5 16.9402 26.9404 17.4998 26.25 17.4998Z" stroke="#337B7C" stroke-width="2" stroke-linecap="round" stroke-linejoin="round"/>
</svg>
