<svg width="40" height="40" viewBox="0 0 40 40" fill="none" xmlns="http://www.w3.org/2000/svg">
<path d="M19.9964 3.33325C14.9834 3.33325 11.733 6.69824 7.88887 7.92476C6.32583 8.42347 5.5443 8.67282 5.22802 9.02434C4.91173 9.37585 4.81912 9.8895 4.63389 10.9168C2.65174 21.9099 6.98418 32.0732 17.3165 36.0291C18.4267 36.4541 18.9817 36.6666 20.0018 36.6666C21.0219 36.6666 21.5769 36.4541 22.687 36.029C33.0187 32.0732 37.347 21.9099 35.3643 10.9168C35.179 9.88932 35.0863 9.37558 34.77 9.02406C34.4536 8.67255 33.6722 8.42333 32.1092 7.9249C28.2636 6.69849 25.0095 3.33325 19.9964 3.33325Z" stroke="#337B7C" stroke-width="2" stroke-linecap="round" stroke-linejoin="round"/>
<path d="M15 21.6667C15 21.6667 16.6667 21.6667 18.3333 25C18.3333 25 23.6275 16.6667 28.3333 15" stroke="#337B7C" stroke-width="2" stroke-linecap="round" stroke-linejoin="round"/>
</svg>
